<svg id="visual" viewBox="0 0 900 600" width="900" height="600" xmlns="http://www.w3.org/2000/svg" xmlns:xlink="http://www.w3.org/1999/xlink" version="1.1"><rect x="0" y="0" width="900" height="600" fill="#001220"></rect><defs><linearGradient id="grad1_0" x1="33.3%" y1="0%" x2="100%" y2="100%"><stop offset="20%" stop-color="#001220" stop-opacity="1"></stop><stop offset="80%" stop-color="#001220" stop-opacity="1"></stop></linearGradient></defs><defs><linearGradient id="grad2_0" x1="0%" y1="0%" x2="66.7%" y2="100%"><stop offset="20%" stop-color="#001220" stop-opacity="1"></stop><stop offset="80%" stop-color="#001220" stop-opacity="1"></stop></linearGradient></defs><g transform="translate(900, 0)"><path d="M0 486.7C-70.5 486.6 -141 486.4 -186.3 449.7C-231.5 413 -251.5 339.7 -292 292C-332.6 244.4 -393.7 222.3 -429.6 177.9C-465.5 133.5 -476.1 66.8 -486.7 0L0 0Z" fill="#FBAE3C"></path></g><g transform="translate(0, 600)"><path d="M0 -486.7C60.8 -468.1 121.6 -449.5 175.3 -423.1C229 -396.8 275.5 -362.8 323.9 -323.9C372.2 -284.9 422.3 -241.1 449.7 -186.3C477.1 -131.5 481.9 -65.7 486.7 0L0 0Z" fill="#FBAE3C"></path></g></svg>