<svg id="visual" viewBox="0 0 900 600" width="900" height="600" xmlns="http://www.w3.org/2000/svg" xmlns:xlink="http://www.w3.org/1999/xlink" version="1.1"><rect x="0" y="0" width="900" height="600" fill="#001220"></rect><path d="M0 427L21.5 430.3C43 433.7 86 440.3 128.8 434.7C171.7 429 214.3 411 257.2 399.7C300 388.3 343 383.7 385.8 377.5C428.7 371.3 471.3 363.7 514.2 367.8C557 372 600 388 642.8 399.5C685.7 411 728.3 418 771.2 425.2C814 432.3 857 439.7 878.5 443.3L900 447L900 601L878.5 601C857 601 814 601 771.2 601C728.3 601 685.7 601 642.8 601C600 601 557 601 514.2 601C471.3 601 428.7 601 385.8 601C343 601 300 601 257.2 601C214.3 601 171.7 601 128.8 601C86 601 43 601 21.5 601L0 601Z" fill="#fa7268"></path><path d="M0 451L21.5 454.8C43 458.7 86 466.3 128.8 467.7C171.7 469 214.3 464 257.2 456.8C300 449.7 343 440.3 385.8 430.8C428.7 421.3 471.3 411.7 514.2 415.3C557 419 600 436 642.8 437.5C685.7 439 728.3 425 771.2 416.8C814 408.7 857 406.3 878.5 405.2L900 404L900 601L878.5 601C857 601 814 601 771.2 601C728.3 601 685.7 601 642.8 601C600 601 557 601 514.2 601C471.3 601 428.7 601 385.8 601C343 601 300 601 257.2 601C214.3 601 171.7 601 128.8 601C86 601 43 601 21.5 601L0 601Z" fill="#ef5f67"></path><path d="M0 465L21.5 465.7C43 466.3 86 467.7 128.8 466C171.7 464.3 214.3 459.7 257.2 457.7C300 455.7 343 456.3 385.8 457.8C428.7 459.3 471.3 461.7 514.2 468.7C557 475.7 600 487.3 642.8 486.8C685.7 486.3 728.3 473.7 771.2 468.7C814 463.7 857 466.3 878.5 467.7L900 469L900 601L878.5 601C857 601 814 601 771.2 601C728.3 601 685.7 601 642.8 601C600 601 557 601 514.2 601C471.3 601 428.7 601 385.8 601C343 601 300 601 257.2 601C214.3 601 171.7 601 128.8 601C86 601 43 601 21.5 601L0 601Z" fill="#e34c67"></path><path d="M0 510L21.5 508.8C43 507.7 86 505.3 128.8 510C171.7 514.7 214.3 526.3 257.2 525.3C300 524.3 343 510.7 385.8 506.3C428.7 502 471.3 507 514.2 506.7C557 506.3 600 500.7 642.8 502.8C685.7 505 728.3 515 771.2 520.7C814 526.3 857 527.7 878.5 528.3L900 529L900 601L878.5 601C857 601 814 601 771.2 601C728.3 601 685.7 601 642.8 601C600 601 557 601 514.2 601C471.3 601 428.7 601 385.8 601C343 601 300 601 257.2 601C214.3 601 171.7 601 128.8 601C86 601 43 601 21.5 601L0 601Z" fill="#d53867"></path><path d="M0 568L21.5 565.8C43 563.7 86 559.3 128.8 556.2C171.7 553 214.3 551 257.2 548.8C300 546.7 343 544.3 385.8 547.8C428.7 551.3 471.3 560.7 514.2 559.2C557 557.7 600 545.3 642.8 539C685.7 532.7 728.3 532.3 771.2 536.2C814 540 857 548 878.5 552L900 556L900 601L878.5 601C857 601 814 601 771.2 601C728.3 601 685.7 601 642.8 601C600 601 557 601 514.2 601C471.3 601 428.7 601 385.8 601C343 601 300 601 257.2 601C214.3 601 171.7 601 128.8 601C86 601 43 601 21.5 601L0 601Z" fill="#c62368"></path></svg>